<?xml version="1.0" standalone="no"?>
<!DOCTYPE svg PUBLIC "-//W3C//DTD SVG 20010904//EN"
 "http://www.w3.org/TR/2001/REC-SVG-20010904/DTD/svg10.dtd">
<svg version="1.0" xmlns="http://www.w3.org/2000/svg"
 width="384.000000pt" height="384.000000pt" viewBox="0 0 384.000000 384.000000"
 preserveAspectRatio="xMidYMid meet">
<metadata>
Created by potrace 1.14, written by Peter Selinger 2001-2017
</metadata>
<g transform="translate(0.000000,384.000000) scale(0.100000,-0.100000)"
fill="#000000" stroke="none">
<path d="M1730 3832 c-19 -2 -41 -8 -47 -14 -9 -7 -13 -7 -13 1 0 8 -6 9 -17
3 -10 -5 -24 -7 -30 -5 -7 3 -13 0 -13 -5 0 -5 -13 -8 -30 -7 -16 1 -30 -2
-30 -8 0 -6 -3 -7 -7 -4 -3 4 -12 2 -20 -5 -7 -6 -16 -8 -20 -5 -3 4 -12 2
-20 -4 -7 -6 -13 -9 -13 -6 0 3 -16 -1 -35 -9 -19 -8 -35 -12 -35 -9 0 3 -9
-3 -21 -14 -12 -11 -27 -17 -34 -15 -7 3 -20 -2 -29 -11 -9 -9 -16 -14 -16
-11 0 7 -97 -51 -123 -72 -9 -9 -27 -20 -40 -27 -12 -6 -20 -18 -19 -26 2 -8
1 -11 -3 -7 -10 9 -45 -24 -38 -35 3 -6 2 -7 -4 -4 -10 7 -53 -44 -53 -63 0
-6 -4 -9 -9 -5 -10 6 -61 -97 -61 -124 0 -9 -5 -22 -12 -29 -8 -8 -9 -12 -1
-12 8 0 8 -9 0 -32 -13 -35 -39 -62 -47 -48 -7 11 -78 6 -110 -8 -30 -12 -75
-50 -75 -63 0 -5 -7 -14 -15 -19 -8 -5 -11 -10 -7 -10 4 0 -1 -10 -13 -22 -11
-12 -25 -37 -32 -55 -7 -18 -15 -33 -19 -33 -7 0 -22 -39 -20 -52 1 -5 -4 -8
-10 -8 -5 0 -7 -5 -4 -10 4 -6 2 -16 -3 -23 -5 -7 -8 -20 -7 -30 2 -10 -1 -14
-7 -10 -7 4 -9 -1 -6 -14 3 -11 1 -28 -4 -37 -6 -11 -5 -16 4 -16 8 0 9 -3 3
-8 -14 -10 -16 -25 -17 -124 -1 -61 3 -92 13 -104 9 -12 10 -15 1 -10 -6 4
-12 3 -12 -3 0 -5 4 -12 9 -16 6 -3 10 -13 10 -23 2 -45 6 -62 13 -62 4 0 8
-11 8 -25 0 -14 5 -25 11 -25 5 0 8 -4 4 -9 -3 -5 0 -15 7 -23 7 -7 15 -22 16
-33 2 -11 7 -22 10 -25 8 -6 14 -26 18 -65 1 -16 7 -45 13 -62 6 -22 6 -33 0
-33 -6 0 -7 -6 0 -17 5 -10 5 -26 0 -40 -5 -13 -4 -25 2 -28 5 -4 7 -11 4 -16
-4 -5 -1 -9 5 -9 6 0 8 -5 4 -12 -10 -16 -12 -58 -3 -64 4 -2 6 -17 5 -34 -1
-16 1 -30 4 -30 3 0 5 -12 5 -27 -1 -16 3 -36 8 -47 7 -13 6 -16 -3 -11 -9 6
-9 3 -2 -11 5 -11 11 -32 13 -49 2 -16 7 -35 12 -42 10 -13 -9 -37 -30 -39 -7
-1 -17 -2 -21 -2 -5 -1 -16 -20 -26 -42 -19 -43 -21 -140 -3 -174 6 -13 6 -16
-3 -11 -9 5 -9 3 -2 -11 5 -11 13 -37 17 -59 4 -22 9 -51 12 -65 3 -14 7 -34
8 -45 2 -11 4 -22 5 -25 1 -3 2 -8 1 -13 0 -4 3 -7 7 -7 4 0 9 -8 9 -17 6 -58
9 -69 21 -81 7 -8 10 -17 7 -22 -3 -5 -1 -11 4 -15 6 -3 8 -12 4 -20 -3 -8 0
-15 6 -15 6 0 11 -7 11 -15 0 -18 28 -65 49 -81 8 -6 11 -16 7 -22 -4 -7 -2
-12 4 -12 7 0 9 -8 5 -20 -4 -11 -2 -20 4 -20 6 0 11 -13 11 -30 0 -16 4 -30
9 -30 5 0 12 -16 15 -35 4 -19 12 -40 19 -47 7 -8 23 -36 37 -63 14 -28 34
-60 45 -73 11 -13 18 -26 17 -29 -2 -3 0 -9 6 -12 5 -3 25 -27 44 -53 20 -26
39 -44 42 -41 3 4 6 -1 6 -10 0 -9 7 -17 16 -17 8 0 13 -3 11 -7 -2 -5 23 -34
55 -65 32 -32 58 -55 58 -52 0 3 11 -7 25 -22 14 -15 25 -24 25 -20 0 4 13 -6
29 -21 37 -35 49 -45 83 -62 15 -8 25 -18 22 -23 -3 -5 -2 -7 3 -6 9 3 64 -31
75 -47 4 -5 8 -6 8 -1 0 5 8 0 17 -10 10 -10 25 -20 33 -22 8 -2 16 -8 18 -13
2 -5 8 -9 14 -9 5 0 16 -7 25 -15 8 -8 19 -12 24 -9 6 3 18 -1 28 -10 10 -9
29 -20 42 -24 32 -9 399 -13 413 -4 6 3 18 8 27 9 9 1 29 8 45 14 16 7 31 13
34 14 26 9 48 21 64 34 11 9 16 10 12 3 -4 -7 8 -4 27 7 19 11 38 17 41 14 3
-4 6 -1 6 5 0 6 16 16 35 22 19 6 35 16 35 21 0 6 5 7 10 4 6 -3 10 -1 10 4 0
6 9 11 20 11 11 0 20 5 20 10 0 6 7 10 15 10 8 0 15 5 15 11 0 5 5 7 10 4 6
-3 10 -1 10 6 0 7 3 9 6 6 4 -4 15 3 25 14 9 11 21 19 24 18 8 -2 39 18 61 39
8 7 14 11 14 8 0 -3 8 2 18 11 29 28 62 53 68 53 6 0 157 152 204 205 14 16
19 25 11 20 -9 -5 -12 -4 -7 3 4 7 14 12 22 12 8 0 14 6 14 14 0 7 11 25 25
40 14 15 25 32 25 37 0 6 5 7 10 4 6 -4 9 -3 8 2 -3 10 20 53 39 71 7 8 11 17
8 22 -3 4 2 11 11 14 8 3 12 10 9 16 -3 5 -2 10 4 10 6 0 20 22 32 50 12 27
25 47 30 44 5 -3 9 -1 9 4 0 14 49 28 93 27 20 -1 37 2 37 5 0 8 39 23 53 21
5 -1 6 3 3 8 -4 5 0 13 7 18 18 11 58 70 61 89 1 8 10 24 19 35 9 10 17 25 17
32 0 7 9 30 21 51 11 21 15 35 8 31 -6 -4 -4 4 5 18 9 13 19 35 21 47 2 13 9
37 14 54 21 65 36 206 22 206 -4 0 -6 13 -5 29 2 31 -23 91 -38 91 -5 0 -6 5
-3 10 6 9 -8 14 -27 11 -5 0 -8 3 -8 9 0 5 -6 10 -14 10 -7 0 -19 7 -26 15
-10 12 -10 15 1 15 11 0 11 2 -1 10 -8 5 -10 10 -5 10 10 0 15 17 18 63 1 9 4
17 7 17 4 0 6 16 5 35 0 19 2 35 5 35 3 0 5 19 4 43 0 23 5 48 10 56 8 10 8
15 -2 18 -6 3 -9 10 -5 16 4 7 8 23 9 37 3 54 9 85 19 92 6 5 5 8 -3 8 -8 0
-10 5 -5 13 4 6 9 21 10 31 2 11 8 25 14 33 9 10 8 13 -1 13 -9 0 -8 5 3 18
10 10 14 22 11 25 -4 4 -2 12 3 19 5 7 9 25 8 40 -1 15 2 25 7 22 5 -4 9 2 7
12 -1 11 1 26 4 34 4 8 9 34 11 58 3 23 8 47 11 52 3 6 1 10 -5 10 -6 0 -8 5
-3 13 12 19 12 37 1 37 -7 0 -7 4 0 13 7 8 7 18 2 27 -5 9 -5 19 2 27 6 7 7
13 2 13 -5 0 -10 19 -12 43 -5 75 -7 82 -22 95 -8 8 -9 11 -2 7 6 -3 12 -2 12
3 0 6 -7 13 -16 16 -12 5 -13 10 -5 19 7 10 7 19 -3 33 -8 12 -10 27 -5 39 4
11 8 16 8 11 1 -5 13 4 28 20 15 16 31 28 36 26 5 -1 6 2 3 7 -3 5 1 14 9 21
8 7 15 17 15 22 0 6 9 23 21 39 11 16 18 29 15 29 -3 0 -1 12 5 27 15 40 20
116 9 133 -6 9 -10 10 -10 3 0 -6 -7 -19 -16 -27 -8 -9 -11 -16 -4 -16 7 0 6
-5 -2 -14 -7 -8 -16 -12 -19 -10 -4 2 -10 -7 -13 -20 -6 -23 -39 -43 -81 -49
-11 -1 -25 -6 -31 -10 -6 -3 -14 -3 -18 1 -11 10 -30 9 -38 -3 -5 -6 -8 -6 -8
3 0 6 -7 12 -16 12 -15 0 -114 96 -114 112 0 4 -5 8 -11 8 -15 0 -39 26 -32
34 6 6 -12 9 -22 4 -2 -2 -12 8 -22 22 -9 14 -25 31 -35 38 -9 7 -24 19 -33
28 -8 8 -15 12 -15 9 0 -4 -9 3 -20 16 -10 13 -19 20 -20 16 0 -4 -10 2 -22
13 -38 36 -75 60 -82 53 -3 -3 -6 1 -6 10 0 9 -3 16 -7 16 -20 -3 -34 2 -28
11 3 6 -3 10 -13 10 -11 0 -25 7 -33 16 -17 20 -65 45 -73 37 -3 -4 -6 -1 -6
5 0 7 -15 19 -32 27 -18 8 -48 24 -65 35 -18 11 -33 17 -33 13 0 -4 -7 2 -16
13 -8 10 -13 14 -10 7 5 -8 0 -8 -18 0 -13 7 -22 15 -20 19 3 5 -8 8 -25 8
-16 0 -33 5 -36 10 -3 6 -15 10 -26 10 -10 0 -19 4 -19 8 0 4 -10 8 -22 9 -11
1 -25 8 -29 15 -7 10 -9 10 -9 -1 0 -11 -3 -11 -17 0 -14 12 -15 12 -9 0 6 -9
0 -8 -17 4 -14 9 -39 19 -54 22 -32 6 -609 10 -663 5z"/>
</g>
</svg>
